<?xml version="1.0" encoding="UTF-8"?>
<svg id="Layer_1" data-name="Layer 1" xmlns="http://www.w3.org/2000/svg" viewBox="0 0 525.17 850.26">
  <defs>
    <style>
      .cls-1 {
        fill: #524fe1;
      }
    </style>
  </defs>
  <path class="cls-1" d="m255.06,511.15l-165.64-59.88v-172.79c0-8.88-6.42-18.08-14.31-20.54l-54.39-16.92c-7.63-2.37-13.79,2.75-13.79,11.44v244.49c0,8.69,6.16,18.11,13.79,21.06l141.38,54.63c7.49,2.9,13.59,11.93,13.59,20.17v151.61c0,5.28-3.91,7.87-8.72,5.79l-153.12-60.9c-7.66-3.31-13.85,1.07-13.85,9.78v62.59c0,8.7,6.19,18.59,13.85,22.1l154.53,65.11c8.29,3.8,15.04-.5,15.04-9.6v-48.42c0-7.73,5.75-11.49,12.86-8.38l57.89,25.32c9.16,4.01,16.62-.71,16.62-10.56v-263.55c0-9.31-7.06-19.41-15.73-22.55Z"/>
  <path class="cls-1" d="m457.51,384.74h0c-4.36-1.68-7.89-7.13-7.89-12.19v-58.82c0-5.06,3.53-7.88,7.89-6.3h0c34.92,12.65,63.74-10.06,63.74-50.94v-109.2c0-48.15-33.89-96.89-74.83-108.61L312.45.3c-4.94-1.42-8.94,2.29-8.94,8.27v72.42l134.76,41.95c4.5,1.4,8.15,6.8,8.15,12.06v155.38c0,5.26-3.66,8.2-8.15,6.58l-127.22-45.95c-4.17-1.5-7.54-6.81-7.54-11.85V80.99l-59.46-21.17c-6.38-1.99-11.53,2.77-11.53,10.62v367.52c0,4.3,2.93,8.17,7.37,9.72l47.88,16.79c7.58,2.66,15.74-2.39,15.74-9.72v-115.93c0-5.34,3.57-8.3,7.98-6.6l126.29,48.66c4.77,1.84,8.64,7.84,8.64,13.42v144.98c0,7.74-5.38,11.68-11.99,8.82l-86.91-37.69c-7.67-3.33-16.56,1.72-16.56,9.4v63.71c0,3.92,2.44,7.52,6.32,9.3l109.15,50.14,3.76,1.73c41.02,18.84,74.99-4.63,74.99-52.83v-102.52c0-43.4-30.61-90.34-67.66-104.58Z"/>
</svg>